<svg width="30" height="30" viewBox="0 0 30 30" fill="none" xmlns="http://www.w3.org/2000/svg">
<path d="M11.3328 13.3334C10.5995 13.3334 9.99951 13.9334 9.99951 14.6667C9.99951 15.4 10.5995 16 11.3328 16C12.0662 16 12.6662 15.4 12.6662 14.6667C12.6662 13.9334 12.0662 13.3334 11.3328 13.3334ZM19.3328 13.3334C18.5995 13.3334 17.9995 13.9334 17.9995 14.6667C17.9995 15.4 18.5995 16 19.3328 16C20.0662 16 20.6662 15.4 20.6662 14.6667C20.6662 13.9334 20.0662 13.3334 19.3328 13.3334ZM15.3328 13.3334C14.5995 13.3334 13.9995 13.9334 13.9995 14.6667C13.9995 15.4 14.5995 16 15.3328 16C16.0662 16 16.6662 15.4 16.6662 14.6667C16.6662 13.9334 16.0662 13.3334 15.3328 13.3334Z" fill="#333333"/>
<circle cx="15" cy="15" r="14" stroke="#333333" stroke-width="2"/>
</svg>
