<svg width="162" height="162" viewBox="0 0 162 162" fill="none" xmlns="http://www.w3.org/2000/svg">
<path d="M121.5 135H27V40.5H87.75V27H27C19.575 27 13.5 33.075 13.5 40.5V135C13.5 142.425 19.575 148.5 27 148.5H121.5C128.925 148.5 135 142.425 135 135V74.25H121.5V135ZM68.9175 113.603L55.6875 97.6725L37.125 121.5H111.375L87.48 89.7075L68.9175 113.603ZM135 27V6.75H121.5V27H101.25C101.317 27.0675 101.25 40.5 101.25 40.5H121.5V60.6825C121.567 60.75 135 60.6825 135 60.6825V40.5H155.25V27H135Z" fill="#323232"/>
</svg>
